<svg viewBox="0 0 29 29" xmlns="http://www.w3.org/2000/svg">
  <defs>
    <style>
      .qr-white { fill: #f5f5f0; }
      .qr-red { fill: #e8192c; }
    </style>
  </defs>

  <!-- Background -->
  <rect width="29" height="29" class="qr-white"/>

  <!-- Position Detection Pattern - Top Left -->
  <rect x="0" y="0" width="7" height="7" class="qr-red"/>
  <rect x="1" y="1" width="5" height="5" class="qr-white"/>
  <rect x="2" y="2" width="3" height="3" class="qr-red"/>

  <!-- Position Detection Pattern - Top Right -->
  <rect x="22" y="0" width="7" height="7" class="qr-red"/>
  <rect x="23" y="1" width="5" height="5" class="qr-white"/>
  <rect x="24" y="2" width="3" height="3" class="qr-red"/>

  <!-- Position Detection Pattern - Bottom Left -->
  <rect x="0" y="22" width="7" height="7" class="qr-red"/>
  <rect x="1" y="23" width="5" height="5" class="qr-white"/>
  <rect x="2" y="24" width="3" height="3" class="qr-red"/>

  <!-- Timing Patterns -->
  <rect x="8" y="6" width="1" height="1" class="qr-red"/>
  <rect x="10" y="6" width="1" height="1" class="qr-red"/>
  <rect x="12" y="6" width="1" height="1" class="qr-red"/>
  <rect x="14" y="6" width="1" height="1" class="qr-red"/>
  <rect x="16" y="6" width="1" height="1" class="qr-red"/>
  <rect x="18" y="6" width="1" height="1" class="qr-red"/>
  <rect x="20" y="6" width="1" height="1" class="qr-red"/>

  <rect x="6" y="8" width="1" height="1" class="qr-red"/>
  <rect x="6" y="10" width="1" height="1" class="qr-red"/>
  <rect x="6" y="12" width="1" height="1" class="qr-red"/>
  <rect x="6" y="14" width="1" height="1" class="qr-red"/>
  <rect x="6" y="16" width="1" height="1" class="qr-red"/>
  <rect x="6" y="18" width="1" height="1" class="qr-red"/>
  <rect x="6" y="20" width="1" height="1" class="qr-red"/>

  <!-- Data pattern - center area -->
  <g class="qr-red">
    <!-- Row 1 -->
    <rect x="8" y="8" width="1" height="1"/>
    <rect x="10" y="8" width="1" height="1"/>
    <rect x="12" y="8" width="1" height="1"/>
    <rect x="14" y="8" width="1" height="1"/>
    <rect x="16" y="8" width="1" height="1"/>
    <rect x="18" y="8" width="1" height="1"/>
    <rect x="20" y="8" width="1" height="1"/>

    <!-- Row 2 -->
    <rect x="8" y="10" width="1" height="1"/>
    <rect x="14" y="10" width="1" height="1"/>
    <rect x="20" y="10" width="1" height="1"/>

    <!-- Row 3 -->
    <rect x="8" y="12" width="1" height="1"/>
    <rect x="10" y="12" width="1" height="1"/>
    <rect x="12" y="12" width="1" height="1"/>
    <rect x="14" y="12" width="1" height="1"/>
    <rect x="16" y="12" width="1" height="1"/>
    <rect x="18" y="12" width="1" height="1"/>
    <rect x="20" y="12" width="1" height="1"/>

    <!-- Row 4 -->
    <rect x="8" y="14" width="1" height="1"/>
    <rect x="14" y="14" width="1" height="1"/>
    <rect x="20" y="14" width="1" height="1"/>

    <!-- Row 5 -->
    <rect x="8" y="16" width="1" height="1"/>
    <rect x="10" y="16" width="1" height="1"/>
    <rect x="12" y="16" width="1" height="1"/>
    <rect x="14" y="16" width="1" height="1"/>
    <rect x="16" y="16" width="1" height="1"/>
    <rect x="18" y="16" width="1" height="1"/>
    <rect x="20" y="16" width="1" height="1"/>

    <!-- Row 6 -->
    <rect x="8" y="18" width="1" height="1"/>
    <rect x="14" y="18" width="1" height="1"/>
    <rect x="20" y="18" width="1" height="1"/>

    <!-- Row 7 -->
    <rect x="8" y="20" width="1" height="1"/>
    <rect x="10" y="20" width="1" height="1"/>
    <rect x="12" y="20" width="1" height="1"/>
    <rect x="14" y="20" width="1" height="1"/>
    <rect x="16" y="20" width="1" height="1"/>
    <rect x="18" y="20" width="1" height="1"/>
    <rect x="20" y="20" width="1" height="1"/>

    <!-- Right side data -->
    <rect x="23" y="8" width="1" height="1"/>
    <rect x="25" y="8" width="1" height="1"/>
    <rect x="27" y="8" width="1" height="1"/>

    <rect x="23" y="10" width="1" height="1"/>
    <rect x="27" y="10" width="1" height="1"/>

    <rect x="23" y="12" width="1" height="1"/>
    <rect x="25" y="12" width="1" height="1"/>
    <rect x="27" y="12" width="1" height="1"/>

    <rect x="23" y="14" width="1" height="1"/>
    <rect x="27" y="14" width="1" height="1"/>

    <rect x="23" y="16" width="1" height="1"/>
    <rect x="25" y="16" width="1" height="1"/>
    <rect x="27" y="16" width="1" height="1"/>

    <rect x="23" y="18" width="1" height="1"/>
    <rect x="27" y="18" width="1" height="1"/>

    <rect x="23" y="20" width="1" height="1"/>
    <rect x="25" y="20" width="1" height="1"/>
    <rect x="27" y="20" width="1" height="1"/>

    <!-- Bottom data -->
    <rect x="8" y="23" width="1" height="1"/>
    <rect x="10" y="23" width="1" height="1"/>
    <rect x="12" y="23" width="1" height="1"/>

    <rect x="8" y="25" width="1" height="1"/>
    <rect x="12" y="25" width="1" height="1"/>

    <rect x="8" y="27" width="1" height="1"/>
    <rect x="10" y="27" width="1" height="1"/>
    <rect x="12" y="27" width="1" height="1"/>

    <rect x="23" y="23" width="1" height="1"/>
    <rect x="25" y="23" width="1" height="1"/>

    <rect x="27" y="23" width="1" height="1"/>

    <rect x="23" y="25" width="1" height="1"/>
    <rect x="27" y="25" width="1" height="1"/>

    <rect x="23" y="27" width="1" height="1"/>
    <rect x="25" y="27" width="1" height="1"/>
    <rect x="27" y="27" width="1" height="1"/>
  </g>
</svg>