<svg viewBox="0 0 33 33" xmlns="http://www.w3.org/2000/svg">
  <defs>
    <style>
      .bg { fill: #f5f5f0; }
      .qr { fill: #ff6600; }
    </style>
  </defs>

  <!-- Background -->
  <rect width="33" height="33" class="bg"/>

  <!-- Top-left position marker -->
  <rect x="0" y="0" width="7" height="7" class="qr"/>
  <rect x="1" y="1" width="5" height="5" class="bg"/>
  <rect x="2" y="2" width="3" height="3" class="qr"/>

  <!-- Top-right position marker -->
  <rect x="26" y="0" width="7" height="7" class="qr"/>
  <rect x="27" y="1" width="5" height="5" class="bg"/>
  <rect x="28" y="2" width="3" height="3" class="qr"/>

  <!-- Bottom-left position marker -->
  <rect x="0" y="26" width="7" height="7" class="qr"/>
  <rect x="1" y="27" width="5" height="5" class="bg"/>
  <rect x="2" y="28" width="3" height="3" class="qr"/>

  <!-- Timing patterns -->
  <rect x="8" y="6" width="1" height="1" class="qr"/>
  <rect x="10" y="6" width="1" height="1" class="qr"/>
  <rect x="12" y="6" width="1" height="1" class="qr"/>
  <rect x="14" y="6" width="1" height="1" class="qr"/>
  <rect x="16" y="6" width="1" height="1" class="qr"/>
  <rect x="18" y="6" width="1" height="1" class="qr"/>
  <rect x="20" y="6" width="1" height="1" class="qr"/>
  <rect x="22" y="6" width="1" height="1" class="qr"/>
  <rect x="24" y="6" width="1" height="1" class="qr"/>

  <rect x="6" y="8" width="1" height="1" class="qr"/>
  <rect x="6" y="10" width="1" height="1" class="qr"/>
  <rect x="6" y="12" width="1" height="1" class="qr"/>
  <rect x="6" y="14" width="1" height="1" class="qr"/>
  <rect x="6" y="16" width="1" height="1" class="qr"/>
  <rect x="6" y="18" width="1" height="1" class="qr"/>
  <rect x="6" y="20" width="1" height="1" class="qr"/>
  <rect x="6" y="22" width="1" height="1" class="qr"/>
  <rect x="6" y="24" width="1" height="1" class="qr"/>

  <!-- QR data pattern -->
  <g class="qr">
    <!-- Complex data pattern -->
    <rect x="8" y="8" width="1" height="1"/>
    <rect x="9" y="8" width="1" height="1"/>
    <rect x="10" y="8" width="1" height="1"/>
    <rect x="11" y="9" width="1" height="1"/>
    <rect x="12" y="8" width="1" height="1"/>
    <rect x="13" y="8" width="1" height="1"/>
    <rect x="14" y="9" width="1" height="1"/>
    <rect x="15" y="8" width="1" height="1"/>
    <rect x="16" y="8" width="1" height="1"/>
    <rect x="17" y="9" width="1" height="1"/>
    <rect x="18" y="8" width="1" height="1"/>
    <rect x="19" y="8" width="1" height="1"/>

    <rect x="8" y="10" width="1" height="1"/>
    <rect x="10" y="10" width="1" height="1"/>
    <rect x="12" y="10" width="1" height="1"/>
    <rect x="14" y="10" width="1" height="1"/>
    <rect x="16" y="10" width="1" height="1"/>
    <rect x="18" y="10" width="1" height="1"/>

    <rect x="8" y="12" width="1" height="1"/>
    <rect x="9" y="12" width="1" height="1"/>
    <rect x="10" y="12" width="1" height="1"/>
    <rect x="11" y="12" width="1" height="1"/>
    <rect x="12" y="12" width="1" height="1"/>
    <rect x="13" y="12" width="1" height="1"/>
    <rect x="14" y="12" width="1" height="1"/>
    <rect x="15" y="12" width="1" height="1"/>
    <rect x="16" y="12" width="1" height="1"/>
    <rect x="17" y="12" width="1" height="1"/>
    <rect x="18" y="12" width="1" height="1"/>
    <rect x="19" y="12" width="1" height="1"/>

    <rect x="8" y="14" width="1" height="1"/>
    <rect x="10" y="14" width="1" height="1"/>
    <rect x="12" y="14" width="1" height="1"/>
    <rect x="14" y="14" width="1" height="1"/>
    <rect x="16" y="14" width="1" height="1"/>
    <rect x="18" y="14" width="1" height="1"/>

    <rect x="8" y="16" width="1" height="1"/>
    <rect x="9" y="16" width="1" height="1"/>
    <rect x="10" y="16" width="1" height="1"/>
    <rect x="11" y="16" width="1" height="1"/>
    <rect x="12" y="16" width="1" height="1"/>
    <rect x="14" y="16" width="1" height="1"/>
    <rect x="16" y="16" width="1" height="1"/>
    <rect x="18" y="16" width="1" height="1"/>

    <rect x="8" y="18" width="1" height="1"/>
    <rect x="10" y="18" width="1" height="1"/>
    <rect x="12" y="18" width="1" height="1"/>
    <rect x="14" y="18" width="1" height="1"/>
    <rect x="16" y="18" width="1" height="1"/>
    <rect x="18" y="18" width="1" height="1"/>

    <rect x="8" y="20" width="1" height="1"/>
    <rect x="9" y="20" width="1" height="1"/>
    <rect x="10" y="20" width="1" height="1"/>
    <rect x="11" y="20" width="1" height="1"/>
    <rect x="12" y="20" width="1" height="1"/>
    <rect x="13" y="20" width="1" height="1"/>
    <rect x="14" y="20" width="1" height="1"/>
    <rect x="15" y="20" width="1" height="1"/>
    <rect x="16" y="20" width="1" height="1"/>
    <rect x="18" y="20" width="1" height="1"/>

    <!-- Right side data -->
    <rect x="26" y="8" width="1" height="1"/>
    <rect x="27" y="8" width="1" height="1"/>
    <rect x="28" y="8" width="1" height="1"/>
    <rect x="29" y="8" width="1" height="1"/>
    <rect x="30" y="8" width="1" height="1"/>
    <rect x="31" y="8" width="1" height="1"/>
    <rect x="32" y="8" width="1" height="1"/>

    <rect x="26" y="10" width="1" height="1"/>
    <rect x="28" y="10" width="1" height="1"/>
    <rect x="30" y="10" width="1" height="1"/>
    <rect x="32" y="10" width="1" height="1"/>

    <rect x="26" y="12" width="1" height="1"/>
    <rect x="27" y="12" width="1" height="1"/>
    <rect x="28" y="12" width="1" height="1"/>
    <rect x="29" y="12" width="1" height="1"/>
    <rect x="30" y="12" width="1" height="1"/>
    <rect x="31" y="12" width="1" height="1"/>
    <rect x="32" y="12" width="1" height="1"/>

    <rect x="26" y="14" width="1" height="1"/>
    <rect x="28" y="14" width="1" height="1"/>
    <rect x="30" y="14" width="1" height="1"/>
    <rect x="32" y="14" width="1" height="1"/>

    <rect x="26" y="16" width="1" height="1"/>
    <rect x="27" y="16" width="1" height="1"/>
    <rect x="28" y="16" width="1" height="1"/>
    <rect x="29" y="16" width="1" height="1"/>
    <rect x="30" y="16" width="1" height="1"/>
    <rect x="32" y="16" width="1" height="1"/>

    <rect x="26" y="18" width="1" height="1"/>
    <rect x="28" y="18" width="1" height="1"/>
    <rect x="30" y="18" width="1" height="1"/>
    <rect x="32" y="18" width="1" height="1"/>

    <rect x="26" y="20" width="1" height="1"/>
    <rect x="27" y="20" width="1" height="1"/>
    <rect x="28" y="20" width="1" height="1"/>
    <rect x="29" y="20" width="1" height="1"/>
    <rect x="30" y="20" width="1" height="1"/>
    <rect x="31" y="20" width="1" height="1"/>
    <rect x="32" y="20" width="1" height="1"/>
  </g>
</svg>